<?xml version="1.0" encoding="UTF-8" standalone="no"?><!DOCTYPE svg PUBLIC "-//W3C//DTD SVG 1.1//EN" "http://www.w3.org/Graphics/SVG/1.1/DTD/svg11.dtd"><!-- Generated by graphviz version 2.40.1 (20161225.0304)
 --><!-- Title: asm_graph Pages: 1 --><svg xmlns="http://www.w3.org/2000/svg" xmlns:xlink="http://www.w3.org/1999/xlink" width="1269pt" height="3622pt" viewBox="0.00 0.00 1268.50 3622.00">
<g id="graph0" class="graph" transform="scale(1 1) rotate(0) translate(4 3618)">
<title>asm_graph</title>
<polygon fill="#ffffff" stroke="transparent" points="-4,4 -4,-3618 1264.5,-3618 1264.5,4 -4,4"/>
<!-- 1664 -->
<g id="node1" class="node">
<title>1664</title>
<path fill="none" stroke="#000000" d="M380,-2482.5C380,-2482.5 551,-2482.5 551,-2482.5 557,-2482.5 563,-2488.5 563,-2494.5 563,-2494.5 563,-2576.5 563,-2576.5 563,-2582.5 557,-2588.5 551,-2588.5 551,-2588.5 380,-2588.5 380,-2588.5 374,-2588.5 368,-2582.5 368,-2576.5 368,-2576.5 368,-2494.5 368,-2494.5 368,-2488.5 374,-2482.5 380,-2482.5"/>
<polygon fill="#c0c0c0" stroke="transparent" points="378.5,-2560.5 378.5,-2582.5 553.5,-2582.5 553.5,-2560.5 378.5,-2560.5"/>
<text text-anchor="start" x="428.2063" y="-2566.9" font-family="Courier New" font-size="14.00" fill="#000000">loc_45ca8</text>
<text text-anchor="start" x="381.5" y="-2542.9" font-family="Courier New" font-size="14.00" fill="#000000">MOV        W1, W0</text>
<text text-anchor="start" x="381.5" y="-2518.9" font-family="Courier New" font-size="14.00" fill="#000000">MOV        X0, X20</text>
<text text-anchor="start" x="381.014" y="-2494.9" font-family="Courier New" font-size="14.00" fill="#000000">BL         loc_3b178</text>
</g>
<!-- 1666 -->
<g id="node3" class="node">
<title>1666</title>
<path fill="none" stroke="#000000" d="M363,-2363.5C363,-2363.5 568,-2363.5 568,-2363.5 574,-2363.5 580,-2369.5 580,-2375.5 580,-2375.5 580,-2433.5 580,-2433.5 580,-2439.5 574,-2445.5 568,-2445.5 568,-2445.5 363,-2445.5 363,-2445.5 357,-2445.5 351,-2439.5 351,-2433.5 351,-2433.5 351,-2375.5 351,-2375.5 351,-2369.5 357,-2363.5 363,-2363.5"/>
<polygon fill="#c0c0c0" stroke="transparent" points="361.5,-2417.5 361.5,-2439.5 570.5,-2439.5 570.5,-2417.5 361.5,-2417.5"/>
<text text-anchor="start" x="428.2063" y="-2423.9" font-family="Courier New" font-size="14.00" fill="#000000">loc_45cb4</text>
<text text-anchor="start" x="364.2168" y="-2399.9" font-family="Courier New" font-size="14.00" fill="#000000">LDR        X8, [SP, 0x8]</text>
<text text-anchor="start" x="364.2168" y="-2375.9" font-family="Courier New" font-size="14.00" fill="#000000">CBZ        X8, loc_45dcc</text>
</g>
<!-- 1664&#45;&gt;1666 -->
<g id="edge15" class="edge">
<title>1664-&gt;1666</title>
<path fill="none" stroke="#0000ff" d="M465.5,-2482.2173C465.5,-2473.4602 465.5,-2464.401 465.5,-2455.6962"/>
<polygon fill="#0000ff" stroke="#0000ff" points="469.0001,-2455.6795 465.5,-2445.6796 462.0001,-2455.6796 469.0001,-2455.6795"/>
</g>
<!-- 1408 -->
<g id="node2" class="node">
<title>1408</title>
<path fill="none" stroke="#000000" d="M432,-978.5C432,-978.5 687,-978.5 687,-978.5 693,-978.5 699,-984.5 699,-990.5 699,-990.5 699,-1120.5 699,-1120.5 699,-1126.5 693,-1132.5 687,-1132.5 687,-1132.5 432,-1132.5 432,-1132.5 426,-1132.5 420,-1126.5 420,-1120.5 420,-1120.5 420,-990.5 420,-990.5 420,-984.5 426,-978.5 432,-978.5"/>
<polygon fill="#c0c0c0" stroke="transparent" points="430.5,-1104.5 430.5,-1126.5 689.5,-1126.5 689.5,-1104.5 430.5,-1104.5"/>
<text text-anchor="start" x="522.2063" y="-1110.9" font-family="Courier New" font-size="14.00" fill="#000000">loc_45e40</text>
<text text-anchor="start" x="433.5" y="-1086.9" font-family="Courier New" font-size="14.00" fill="#000000">LDR        X8, [X19, 0x8]</text>
<text text-anchor="start" x="433.021" y="-1062.9" font-family="Courier New" font-size="14.00" fill="#000000">UBFM       X23, X1, 0x3D, 0x3C</text>
<text text-anchor="start" x="433.5" y="-1038.9" font-family="Courier New" font-size="14.00" fill="#000000">MOV        X0, X23</text>
<text text-anchor="start" x="433.5" y="-1014.9" font-family="Courier New" font-size="14.00" fill="#000000">SUB        X22, X8, X20</text>
<text text-anchor="start" x="433.5" y="-990.9" font-family="Courier New" font-size="14.00" fill="#000000">BL         loc_3a858</text>
</g>
<!-- 1410 -->
<g id="node4" class="node">
<title>1410</title>
<path fill="none" stroke="#000000" d="M444,-787.5C444,-787.5 649,-787.5 649,-787.5 655,-787.5 661,-793.5 661,-799.5 661,-799.5 661,-929.5 661,-929.5 661,-935.5 655,-941.5 649,-941.5 649,-941.5 444,-941.5 444,-941.5 438,-941.5 432,-935.5 432,-929.5 432,-929.5 432,-799.5 432,-799.5 432,-793.5 438,-787.5 444,-787.5"/>
<polygon fill="#c0c0c0" stroke="transparent" points="442.5,-913.5 442.5,-935.5 651.5,-935.5 651.5,-913.5 442.5,-913.5"/>
<text text-anchor="start" x="509.2063" y="-919.9" font-family="Courier New" font-size="14.00" fill="#000000">loc_45e54</text>
<text text-anchor="start" x="445.5" y="-895.9" font-family="Courier New" font-size="14.00" fill="#000000">MOV        X21, X0</text>
<text text-anchor="start" x="445.2168" y="-871.9" font-family="Courier New" font-size="14.00" fill="#000000">ADD        X24, X21, X22</text>
<text text-anchor="start" x="445.2168" y="-847.9" font-family="Courier New" font-size="14.00" fill="#000000">ADD        X23, X21, X23</text>
<text text-anchor="start" x="445.5" y="-823.9" font-family="Courier New" font-size="14.00" fill="#000000">CMP        X22, 0x1</text>
<text text-anchor="start" x="445.5" y="-799.9" font-family="Courier New" font-size="14.00" fill="#000000">B.LT       loc_45e7c</text>
</g>
<!-- 1408&#45;&gt;1410 -->
<g id="edge16" class="edge">
<title>1408-&gt;1410</title>
<path fill="none" stroke="#0000ff" d="M554.2499,-978.3635C553.6508,-969.5623 553.0371,-960.5449 552.43,-951.6256"/>
<polygon fill="#0000ff" stroke="#0000ff" points="555.9197,-951.3531 551.7486,-941.6139 548.9358,-951.8285 555.9197,-951.3531"/>
</g>
<!-- 1667 -->
<g id="node5" class="node">
<title>1667</title>
<path fill="none" stroke="#000000" d="M229,-2172.5C229,-2172.5 560,-2172.5 560,-2172.5 566,-2172.5 572,-2178.5 572,-2184.5 572,-2184.5 572,-2314.5 572,-2314.5 572,-2320.5 566,-2326.5 560,-2326.5 560,-2326.5 229,-2326.5 229,-2326.5 223,-2326.5 217,-2320.5 217,-2314.5 217,-2314.5 217,-2184.5 217,-2184.5 217,-2178.5 223,-2172.5 229,-2172.5"/>
<polygon fill="#c0c0c0" stroke="transparent" points="227.5,-2298.5 227.5,-2320.5 562.5,-2320.5 562.5,-2298.5 227.5,-2298.5"/>
<text text-anchor="start" x="357.2063" y="-2304.9" font-family="Courier New" font-size="14.00" fill="#000000">loc_45cbc</text>
<text text-anchor="start" x="230.5" y="-2280.9" font-family="Courier New" font-size="14.00" fill="#000000">LDR        X9, [X8]</text>
<text text-anchor="start" x="230.5" y="-2256.9" font-family="Courier New" font-size="14.00" fill="#000000">ADD        X1, SP, 0x8</text>
<text text-anchor="start" x="230.2273" y="-2232.9" font-family="Courier New" font-size="14.00" fill="#000000">LDUR       X9, [X9, 0xFFFFFFFFFFFFFFE8]</text>
<text text-anchor="start" x="230.5" y="-2208.9" font-family="Courier New" font-size="14.00" fill="#000000">ADD        X0, X8, X9</text>
<text text-anchor="start" x="230.5" y="-2184.9" font-family="Courier New" font-size="14.00" fill="#000000">BL         loc_3a878</text>
</g>
<!-- 1666&#45;&gt;1667 -->
<g id="edge18" class="edge">
<title>1666-&gt;1667</title>
<path fill="none" stroke="#ff0000" d="M446.6597,-2363.3698C442.7059,-2354.7382 438.3954,-2345.3281 434.0022,-2335.7372"/>
<polygon fill="#ff0000" stroke="#ff0000" points="437.1204,-2334.14 429.7737,-2326.506 430.7562,-2337.0552 437.1204,-2334.14"/>
</g>
<!-- 1654 -->
<g id="node23" class="node">
<title>1654</title>
<path fill="none" stroke="#000000" d="M520,-2053.5C520,-2053.5 691,-2053.5 691,-2053.5 697,-2053.5 703,-2059.5 703,-2065.5 703,-2065.5 703,-2123.5 703,-2123.5 703,-2129.5 697,-2135.5 691,-2135.5 691,-2135.5 520,-2135.5 520,-2135.5 514,-2135.5 508,-2129.5 508,-2123.5 508,-2123.5 508,-2065.5 508,-2065.5 508,-2059.5 514,-2053.5 520,-2053.5"/>
<polygon fill="#c0c0c0" stroke="transparent" points="518.5,-2107.5 518.5,-2129.5 693.5,-2129.5 693.5,-2107.5 518.5,-2107.5"/>
<text text-anchor="start" x="568.2063" y="-2113.9" font-family="Courier New" font-size="14.00" fill="#000000">loc_45dcc</text>
<text text-anchor="start" x="521.5" y="-2089.9" font-family="Courier New" font-size="14.00" fill="#000000">MOV        W0, WZR</text>
<text text-anchor="start" x="521.014" y="-2065.9" font-family="Courier New" font-size="14.00" fill="#000000">B          loc_45dd8</text>
</g>
<!-- 1666&#45;&gt;1654 -->
<g id="edge19" class="edge">
<title>1666-&gt;1654</title>
<path fill="none" stroke="#32cd32" d="M547.5412,-2363.3224C560.8303,-2353.1868 572.9995,-2341.1063 581.5,-2327 614.7408,-2271.8379 615.9899,-2195.7101 612.1384,-2145.8145"/>
<polygon fill="#32cd32" stroke="#32cd32" points="615.6019,-2145.2417 611.2488,-2135.5825 608.6282,-2145.8481 615.6019,-2145.2417"/>
</g>
<!-- 1413 -->
<g id="node6" class="node">
<title>1413</title>
<path fill="none" stroke="#000000" d="M455,-620.5C455,-620.5 626,-620.5 626,-620.5 632,-620.5 638,-626.5 638,-632.5 638,-632.5 638,-738.5 638,-738.5 638,-744.5 632,-750.5 626,-750.5 626,-750.5 455,-750.5 455,-750.5 449,-750.5 443,-744.5 443,-738.5 443,-738.5 443,-632.5 443,-632.5 443,-626.5 449,-620.5 455,-620.5"/>
<polygon fill="#c0c0c0" stroke="transparent" points="453.5,-722.5 453.5,-744.5 628.5,-744.5 628.5,-722.5 453.5,-722.5"/>
<text text-anchor="start" x="503.2063" y="-728.9" font-family="Courier New" font-size="14.00" fill="#000000">loc_45e68</text>
<text text-anchor="start" x="456.5" y="-704.9" font-family="Courier New" font-size="14.00" fill="#000000">MOV        X0, X21</text>
<text text-anchor="start" x="456.5" y="-680.9" font-family="Courier New" font-size="14.00" fill="#000000">MOV        X1, X20</text>
<text text-anchor="start" x="456.5" y="-656.9" font-family="Courier New" font-size="14.00" fill="#000000">MOV        X2, X22</text>
<text text-anchor="start" x="456.014" y="-632.9" font-family="Courier New" font-size="14.00" fill="#000000">BL         loc_3a9e8</text>
</g>
<!-- 1410&#45;&gt;1413 -->
<g id="edge20" class="edge">
<title>1410-&gt;1413</title>
<path fill="none" stroke="#ff0000" d="M543.9119,-787.2891C543.6179,-778.5159 543.3184,-769.5822 543.0252,-760.8337"/>
<polygon fill="#ff0000" stroke="#ff0000" points="546.5176,-760.5467 542.6845,-750.6696 539.5215,-760.7812 546.5176,-760.5467"/>
</g>
<!-- 1412 -->
<g id="node7" class="node">
<title>1412</title>
<path fill="none" stroke="#000000" d="M490.5,-382.5C490.5,-382.5 720.5,-382.5 720.5,-382.5 726.5,-382.5 732.5,-388.5 732.5,-394.5 732.5,-394.5 732.5,-476.5 732.5,-476.5 732.5,-482.5 726.5,-488.5 720.5,-488.5 720.5,-488.5 490.5,-488.5 490.5,-488.5 484.5,-488.5 478.5,-482.5 478.5,-476.5 478.5,-476.5 478.5,-394.5 478.5,-394.5 478.5,-388.5 484.5,-382.5 490.5,-382.5"/>
<polygon fill="#c0c0c0" stroke="transparent" points="488.5,-460.5 488.5,-482.5 722.5,-482.5 722.5,-460.5 488.5,-460.5"/>
<text text-anchor="start" x="567.7063" y="-466.9" font-family="Courier New" font-size="14.00" fill="#000000">loc_45e7c</text>
<text text-anchor="start" x="491.5" y="-442.9" font-family="Courier New" font-size="14.00" fill="#000000">STP        X21, X24, [X19]</text>
<text text-anchor="start" x="491.1189" y="-418.9" font-family="Courier New" font-size="14.00" fill="#000000">STR        X23, [X19, 0x10]</text>
<text text-anchor="start" x="491.5" y="-394.9" font-family="Courier New" font-size="14.00" fill="#000000">CBZ        X20, loc_45ea0</text>
</g>
<!-- 1410&#45;&gt;1412 -->
<g id="edge21" class="edge">
<title>1410-&gt;1412</title>
<path fill="none" stroke="#32cd32" d="M627.4884,-787.1813C635.5729,-775.8308 642.593,-763.6669 647.5,-751 683.7846,-657.3341 672.2494,-622.8383 649.5,-525 647.4266,-516.0829 644.3326,-507.0313 640.7282,-498.2811"/>
<polygon fill="#32cd32" stroke="#32cd32" points="643.8515,-496.6875 636.6407,-488.9251 637.4369,-499.49 643.8515,-496.6875"/>
</g>
<!-- 1668 -->
<g id="node9" class="node">
<title>1668</title>
<path fill="none" stroke="#000000" d="M307,-2053.5C307,-2053.5 478,-2053.5 478,-2053.5 484,-2053.5 490,-2059.5 490,-2065.5 490,-2065.5 490,-2123.5 490,-2123.5 490,-2129.5 484,-2135.5 478,-2135.5 478,-2135.5 307,-2135.5 307,-2135.5 301,-2135.5 295,-2129.5 295,-2123.5 295,-2123.5 295,-2065.5 295,-2065.5 295,-2059.5 301,-2053.5 307,-2053.5"/>
<polygon fill="#c0c0c0" stroke="transparent" points="305.5,-2107.5 305.5,-2129.5 480.5,-2129.5 480.5,-2107.5 305.5,-2107.5"/>
<text text-anchor="start" x="355.2063" y="-2113.9" font-family="Courier New" font-size="14.00" fill="#000000">loc_45cd0</text>
<text text-anchor="start" x="308.5" y="-2089.9" font-family="Courier New" font-size="14.00" fill="#000000">MOV        W0, WZR</text>
<text text-anchor="start" x="308.014" y="-2065.9" font-family="Courier New" font-size="14.00" fill="#000000">B          loc_45dd8</text>
</g>
<!-- 1667&#45;&gt;1668 -->
<g id="edge24" class="edge">
<title>1667-&gt;1668</title>
<path fill="none" stroke="#0000ff" d="M393.5059,-2172.4541C393.3902,-2163.4875 393.2744,-2154.5128 393.1646,-2146.0101"/>
<polygon fill="#0000ff" stroke="#0000ff" points="396.6631,-2145.8591 393.0343,-2135.9051 389.6637,-2145.9495 396.6631,-2145.8591"/>
</g>
<!-- 1416 -->
<g id="node10" class="node">
<title>1416</title>
<path fill="none" stroke="#000000" d="M448.5,-525.5C448.5,-525.5 628.5,-525.5 628.5,-525.5 634.5,-525.5 640.5,-531.5 640.5,-537.5 640.5,-537.5 640.5,-571.5 640.5,-571.5 640.5,-577.5 634.5,-583.5 628.5,-583.5 628.5,-583.5 448.5,-583.5 448.5,-583.5 442.5,-583.5 436.5,-577.5 436.5,-571.5 436.5,-571.5 436.5,-537.5 436.5,-537.5 436.5,-531.5 442.5,-525.5 448.5,-525.5"/>
<polygon fill="#c0c0c0" stroke="transparent" points="446.5,-555.5 446.5,-577.5 630.5,-577.5 630.5,-555.5 446.5,-555.5"/>
<text text-anchor="start" x="500.7063" y="-561.9" font-family="Courier New" font-size="14.00" fill="#000000">loc_45e78</text>
<text text-anchor="start" x="449.3147" y="-537.9" font-family="Courier New" font-size="14.00" fill="#000000">LDR        X20, [X19]</text>
</g>
<!-- 1413&#45;&gt;1416 -->
<g id="edge25" class="edge">
<title>1413-&gt;1416</title>
<path fill="none" stroke="#0000ff" d="M539.5059,-620.3838C539.368,-611.3537 539.23,-602.314 539.1023,-593.951"/>
<polygon fill="#0000ff" stroke="#0000ff" points="542.5992,-593.7169 538.9469,-583.7715 535.6001,-593.8238 542.5992,-593.7169"/>
</g>
<!-- 1417 -->
<g id="node11" class="node">
<title>1417</title>
<path fill="none" stroke="#000000" d="M565.5,-167.5C565.5,-167.5 829.5,-167.5 829.5,-167.5 835.5,-167.5 841.5,-173.5 841.5,-179.5 841.5,-179.5 841.5,-333.5 841.5,-333.5 841.5,-339.5 835.5,-345.5 829.5,-345.5 829.5,-345.5 565.5,-345.5 565.5,-345.5 559.5,-345.5 553.5,-339.5 553.5,-333.5 553.5,-333.5 553.5,-179.5 553.5,-179.5 553.5,-173.5 559.5,-167.5 565.5,-167.5"/>
<polygon fill="#c0c0c0" stroke="transparent" points="563.5,-317.5 563.5,-339.5 831.5,-339.5 831.5,-317.5 563.5,-317.5"/>
<text text-anchor="start" x="659.7063" y="-323.9" font-family="Courier New" font-size="14.00" fill="#000000">loc_45e88</text>
<text text-anchor="start" x="566.5" y="-299.9" font-family="Courier New" font-size="14.00" fill="#000000">MOV        X0, X20</text>
<text text-anchor="start" x="566.5" y="-275.9" font-family="Courier New" font-size="14.00" fill="#000000">LDP        X29, LR, [SP, 0x30]</text>
<text text-anchor="start" x="566.3217" y="-251.9" font-family="Courier New" font-size="14.00" fill="#000000">LDP        X20, X19, [SP, 0x20]</text>
<text text-anchor="start" x="566.3217" y="-227.9" font-family="Courier New" font-size="14.00" fill="#000000">LDP        X22, X21, [SP, 0x10]</text>
<text text-anchor="start" x="566.3217" y="-203.9" font-family="Courier New" font-size="14.00" fill="#000000">LDP        X24, X23, [SP], 0x40</text>
<text text-anchor="start" x="566.5" y="-179.9" font-family="Courier New" font-size="14.00" fill="#000000">B          loc_3a918</text>
</g>
<!-- 1412&#45;&gt;1417 -->
<g id="edge27" class="edge">
<title>1412-&gt;1417</title>
<path fill="none" stroke="#ff0000" d="M632.8539,-382.2787C637.3495,-373.5319 642.1311,-364.2286 646.9803,-354.7937"/>
<polygon fill="#ff0000" stroke="#ff0000" points="650.1848,-356.2154 651.6432,-345.7214 643.959,-353.0155 650.1848,-356.2154"/>
</g>
<!-- 1405 -->
<g id="node27" class="node">
<title>1405</title>
<path fill="none" stroke="#000000" d="M259.5,-179.5C259.5,-179.5 523.5,-179.5 523.5,-179.5 529.5,-179.5 535.5,-185.5 535.5,-191.5 535.5,-191.5 535.5,-321.5 535.5,-321.5 535.5,-327.5 529.5,-333.5 523.5,-333.5 523.5,-333.5 259.5,-333.5 259.5,-333.5 253.5,-333.5 247.5,-327.5 247.5,-321.5 247.5,-321.5 247.5,-191.5 247.5,-191.5 247.5,-185.5 253.5,-179.5 259.5,-179.5"/>
<polygon fill="#c0c0c0" stroke="transparent" points="257.5,-305.5 257.5,-327.5 525.5,-327.5 525.5,-305.5 257.5,-305.5"/>
<text text-anchor="start" x="353.7063" y="-311.9" font-family="Courier New" font-size="14.00" fill="#000000">loc_45ea0</text>
<text text-anchor="start" x="260.5" y="-287.9" font-family="Courier New" font-size="14.00" fill="#000000">LDP        X29, LR, [SP, 0x30]</text>
<text text-anchor="start" x="260.3217" y="-263.9" font-family="Courier New" font-size="14.00" fill="#000000">LDP        X20, X19, [SP, 0x20]</text>
<text text-anchor="start" x="260.3217" y="-239.9" font-family="Courier New" font-size="14.00" fill="#000000">LDP        X22, X21, [SP, 0x10]</text>
<text text-anchor="start" x="260.3217" y="-215.9" font-family="Courier New" font-size="14.00" fill="#000000">LDP        X24, X23, [SP], 0x40</text>
<text text-anchor="start" x="260.5" y="-191.9" font-family="Courier New" font-size="14.00" fill="#000000">RET        LR</text>
</g>
<!-- 1412&#45;&gt;1405 -->
<g id="edge22" class="edge">
<title>1412-&gt;1405</title>
<path fill="none" stroke="#32cd32" d="M541.8723,-382.2787C526.0597,-369.0522 508.7257,-354.5533 491.6268,-340.2509"/>
<polygon fill="#32cd32" stroke="#32cd32" points="493.7095,-337.43 483.7934,-333.6987 489.2183,-342.7993 493.7095,-337.43"/>
</g>
<!-- 1414 -->
<g id="node8" class="node">
<title>1414</title>
<path fill="none" stroke="#000000" d="M850,-620.5C850,-620.5 1089,-620.5 1089,-620.5 1095,-620.5 1101,-626.5 1101,-632.5 1101,-632.5 1101,-738.5 1101,-738.5 1101,-744.5 1095,-750.5 1089,-750.5 1089,-750.5 850,-750.5 850,-750.5 844,-750.5 838,-744.5 838,-738.5 838,-738.5 838,-632.5 838,-632.5 838,-626.5 844,-620.5 850,-620.5"/>
<polygon fill="#c0c0c0" stroke="transparent" points="848.5,-722.5 848.5,-744.5 1091.5,-744.5 1091.5,-722.5 848.5,-722.5"/>
<text text-anchor="start" x="932.2063" y="-728.9" font-family="Courier New" font-size="14.00" fill="#000000">loc_3b6c8</text>
<text text-anchor="start" x="851.5" y="-704.9" font-family="Courier New" font-size="14.00" fill="#000000">ADRP       X16, 0x3A000</text>
<text text-anchor="start" x="851.4196" y="-680.9" font-family="Courier New" font-size="14.00" fill="#000000">LDR        X17, [X16, 0x6F8]</text>
<text text-anchor="start" x="851.5" y="-656.9" font-family="Courier New" font-size="14.00" fill="#000000">ADD        X16, X16, 0x6F8</text>
<text text-anchor="start" x="851.5" y="-632.9" font-family="Courier New" font-size="14.00" fill="#000000">BR         X17</text>
</g>
<!-- 1402 -->
<g id="node24" class="node">
<title>1402</title>
<path fill="none" stroke="#000000" d="M469.5,-1862.5C469.5,-1862.5 741.5,-1862.5 741.5,-1862.5 747.5,-1862.5 753.5,-1868.5 753.5,-1874.5 753.5,-1874.5 753.5,-2004.5 753.5,-2004.5 753.5,-2010.5 747.5,-2016.5 741.5,-2016.5 741.5,-2016.5 469.5,-2016.5 469.5,-2016.5 463.5,-2016.5 457.5,-2010.5 457.5,-2004.5 457.5,-2004.5 457.5,-1874.5 457.5,-1874.5 457.5,-1868.5 463.5,-1862.5 469.5,-1862.5"/>
<polygon fill="#c0c0c0" stroke="transparent" points="467.5,-1988.5 467.5,-2010.5 743.5,-2010.5 743.5,-1988.5 467.5,-1988.5"/>
<text text-anchor="start" x="567.7063" y="-1994.9" font-family="Courier New" font-size="14.00" fill="#000000">loc_45dd8</text>
<text text-anchor="start" x="470.1224" y="-1970.9" font-family="Courier New" font-size="14.00" fill="#000000">MRS        X8, 0x3, c13, c0, 0x2</text>
<text text-anchor="start" x="470.5" y="-1946.9" font-family="Courier New" font-size="14.00" fill="#000000">LDR        X8, [X8, 0x28]</text>
<text text-anchor="start" x="470.5" y="-1922.9" font-family="Courier New" font-size="14.00" fill="#000000">LDR        X9, [SP, 0x38]</text>
<text text-anchor="start" x="470.5" y="-1898.9" font-family="Courier New" font-size="14.00" fill="#000000">CMP        X8, X9</text>
<text text-anchor="start" x="470.5" y="-1874.9" font-family="Courier New" font-size="14.00" fill="#000000">B.NE       loc_45e04</text>
</g>
<!-- 1668&#45;&gt;1402 -->
<g id="edge29" class="edge">
<title>1668-&gt;1402</title>
<path fill="none" stroke="#0000ff" d="M449.0209,-2053.3698C462.2275,-2043.7593 476.7603,-2033.1838 491.4855,-2022.4683"/>
<polygon fill="#0000ff" stroke="#0000ff" points="493.6525,-2025.22 499.6789,-2016.506 489.5337,-2019.56 493.6525,-2025.22"/>
</g>
<!-- 1416&#45;&gt;1412 -->
<g id="edge26" class="edge">
<title>1416-&gt;1412</title>
<path fill="none" stroke="#0000ff" d="M554.89,-525.3893C559.6358,-516.9603 565.0077,-507.4191 570.4346,-497.7803"/>
<polygon fill="#0000ff" stroke="#0000ff" points="573.5612,-499.3611 575.4175,-488.9301 567.4615,-495.9268 573.5612,-499.3611"/>
</g>
<!-- 1418 -->
<g id="node12" class="node">
<title>1418</title>
<path fill="none" stroke="#000000" d="M582.5,-.5C582.5,-.5 812.5,-.5 812.5,-.5 818.5,-.5 824.5,-6.5 824.5,-12.5 824.5,-12.5 824.5,-118.5 824.5,-118.5 824.5,-124.5 818.5,-130.5 812.5,-130.5 812.5,-130.5 582.5,-130.5 582.5,-130.5 576.5,-130.5 570.5,-124.5 570.5,-118.5 570.5,-118.5 570.5,-12.5 570.5,-12.5 570.5,-6.5 576.5,-.5 582.5,-.5"/>
<polygon fill="#c0c0c0" stroke="transparent" points="580.5,-102.5 580.5,-124.5 814.5,-124.5 814.5,-102.5 580.5,-102.5"/>
<text text-anchor="start" x="659.7063" y="-108.9" font-family="Courier New" font-size="14.00" fill="#000000">loc_3a918</text>
<text text-anchor="start" x="583.5" y="-84.9" font-family="Courier New" font-size="14.00" fill="#000000">ADRP       X16, 0x3B000</text>
<text text-anchor="start" x="583.1189" y="-60.9" font-family="Courier New" font-size="14.00" fill="#000000">LDR        X17, [X16, 0x20]</text>
<text text-anchor="start" x="583.5" y="-36.9" font-family="Courier New" font-size="14.00" fill="#000000">ADD        X16, X16, 0x20</text>
<text text-anchor="start" x="583.5" y="-12.9" font-family="Courier New" font-size="14.00" fill="#000000">BR         X17</text>
</g>
<!-- 1417&#45;&gt;1418 -->
<g id="edge28" class="edge">
<title>1417-&gt;1418</title>
<path fill="none" stroke="#0000ff" d="M697.5,-167.4307C697.5,-158.5532 697.5,-149.6013 697.5,-140.8836"/>
<polygon fill="#0000ff" stroke="#0000ff" points="701.0001,-140.7758 697.5,-130.7759 694.0001,-140.7759 701.0001,-140.7758"/>
</g>
<!-- 36 -->
<g id="node13" class="node">
<title>36</title>
<path fill="none" stroke="#000000" d="M12,-1288.5C12,-1288.5 939,-1288.5 939,-1288.5 945,-1288.5 951,-1294.5 951,-1300.5 951,-1300.5 951,-1598.5 951,-1598.5 951,-1604.5 945,-1610.5 939,-1610.5 939,-1610.5 12,-1610.5 12,-1610.5 6,-1610.5 0,-1604.5 0,-1598.5 0,-1598.5 0,-1300.5 0,-1300.5 0,-1294.5 6,-1288.5 12,-1288.5"/>
<polygon fill="#c0c0c0" stroke="transparent" points="10.5,-1582.5 10.5,-1604.5 941.5,-1604.5 941.5,-1582.5 10.5,-1582.5"/>
<text text-anchor="start" x="14.077" y="-1588.9" font-family="Courier New" font-size="14.00" fill="#000000">_ZNSt3__16vectorIP13native_handleNS_9allocatorIS2_EEE7reserveEm,_ZNSt3__16vectorIlNS_9allocatorIlEEE7reserveEm</text>
<text text-anchor="start" x="13.5" y="-1564.9" font-family="Courier New" font-size="14.00" fill="#000000">STP        X24, X23, [SP, 0xFFFFFFFFFFFFFFC0]!</text>
<text text-anchor="start" x="13.5" y="-1540.9" font-family="Courier New" font-size="14.00" fill="#000000">STP        X22, X21, [SP, 0x10]</text>
<text text-anchor="start" x="13.5" y="-1516.9" font-family="Courier New" font-size="14.00" fill="#000000">STP        X20, X19, [SP, 0x20]</text>
<text text-anchor="start" x="13.5" y="-1492.9" font-family="Courier New" font-size="14.00" fill="#000000">STP        X29, LR, [SP, 0x30]</text>
<text text-anchor="start" x="13.5" y="-1468.9" font-family="Courier New" font-size="14.00" fill="#000000">ADD        X29, SP, 0x30</text>
<text text-anchor="start" x="13.5" y="-1444.9" font-family="Courier New" font-size="14.00" fill="#000000">MOV        X19, X0</text>
<text text-anchor="start" x="13.5" y="-1420.9" font-family="Courier New" font-size="14.00" fill="#000000">LDR        X8, [X19, 0x10]</text>
<text text-anchor="start" x="13.5" y="-1396.9" font-family="Courier New" font-size="14.00" fill="#000000">LDR        X20, [X19]</text>
<text text-anchor="start" x="13.5" y="-1372.9" font-family="Courier New" font-size="14.00" fill="#000000">SUB        X8, X8, X20</text>
<text text-anchor="start" x="13.5" y="-1348.9" font-family="Courier New" font-size="14.00" fill="#000000">SBFM       X8, X8, 0x3, 0x3F</text>
<text text-anchor="start" x="13.5" y="-1324.9" font-family="Courier New" font-size="14.00" fill="#000000">CMP        X8, X1</text>
<text text-anchor="start" x="13.5" y="-1300.9" font-family="Courier New" font-size="14.00" fill="#000000">B.CS       loc_45ea0</text>
</g>
<!-- 36&#45;&gt;1405 -->
<g id="edge10" class="edge">
<title>36-&gt;1405</title>
<path fill="none" stroke="#32cd32" d="M424.0766,-1288.4198C420.927,-1276.159 418.0189,-1263.9209 415.5,-1252 397.311,-1165.9184 391.5,-1143.4823 391.5,-1055.5 391.5,-1055.5 391.5,-1055.5 391.5,-554.5 391.5,-483.5852 391.5,-403.1778 391.5,-343.7734"/>
<polygon fill="#32cd32" stroke="#32cd32" points="395.0001,-343.6803 391.5,-333.6803 388.0001,-343.6804 395.0001,-343.6803"/>
</g>
<!-- 1406 -->
<g id="node28" class="node">
<title>1406</title>
<path fill="none" stroke="#000000" d="M436,-1169.5C436,-1169.5 683,-1169.5 683,-1169.5 689,-1169.5 695,-1175.5 695,-1181.5 695,-1181.5 695,-1239.5 695,-1239.5 695,-1245.5 689,-1251.5 683,-1251.5 683,-1251.5 436,-1251.5 436,-1251.5 430,-1251.5 424,-1245.5 424,-1239.5 424,-1239.5 424,-1181.5 424,-1181.5 424,-1175.5 430,-1169.5 436,-1169.5"/>
<polygon fill="#c0c0c0" stroke="transparent" points="434.5,-1223.5 434.5,-1245.5 685.5,-1245.5 685.5,-1223.5 434.5,-1223.5"/>
<text text-anchor="start" x="522.2063" y="-1229.9" font-family="Courier New" font-size="14.00" fill="#000000">loc_45e38</text>
<text text-anchor="start" x="437.2203" y="-1205.9" font-family="Courier New" font-size="14.00" fill="#000000">UBFM       X8, X1, 0x3D, 0x3F</text>
<text text-anchor="start" x="437.5" y="-1181.9" font-family="Courier New" font-size="14.00" fill="#000000">CBNZ       X8, loc_45eb4</text>
</g>
<!-- 36&#45;&gt;1406 -->
<g id="edge11" class="edge">
<title>36-&gt;1406</title>
<path fill="none" stroke="#ff0000" d="M532.1115,-1288.4268C535.4699,-1278.8714 538.6859,-1269.7211 541.6574,-1261.2663"/>
<polygon fill="#ff0000" stroke="#ff0000" points="545.0135,-1262.2728 545.0274,-1251.678 538.4095,-1259.9517 545.0135,-1262.2728"/>
</g>
<!-- 1772 -->
<g id="node14" class="node">
<title>1772</title>
<path fill="none" stroke="#000000" d="M522,-3507.5C522,-3507.5 719,-3507.5 719,-3507.5 725,-3507.5 731,-3513.5 731,-3519.5 731,-3519.5 731,-3601.5 731,-3601.5 731,-3607.5 725,-3613.5 719,-3613.5 719,-3613.5 522,-3613.5 522,-3613.5 516,-3613.5 510,-3607.5 510,-3601.5 510,-3601.5 510,-3519.5 510,-3519.5 510,-3513.5 516,-3507.5 522,-3507.5"/>
<polygon fill="#c0c0c0" stroke="transparent" points="520.5,-3585.5 520.5,-3607.5 721.5,-3607.5 721.5,-3585.5 520.5,-3585.5"/>
<text text-anchor="start" x="583.2063" y="-3591.9" font-family="Courier New" font-size="14.00" fill="#000000">loc_45c50</text>
<text text-anchor="start" x="523.4161" y="-3567.9" font-family="Courier New" font-size="14.00" fill="#000000">ADD        X1, X19, 0x8</text>
<text text-anchor="start" x="523.5" y="-3543.9" font-family="Courier New" font-size="14.00" fill="#000000">MOV        X0, X21</text>
<text text-anchor="start" x="523.5" y="-3519.9" font-family="Courier New" font-size="14.00" fill="#000000">BL         loc_3b5f8</text>
</g>
<!-- 1773 -->
<g id="node15" class="node">
<title>1773</title>
<path fill="none" stroke="#000000" d="M497,-3412.5C497,-3412.5 744,-3412.5 744,-3412.5 750,-3412.5 756,-3418.5 756,-3424.5 756,-3424.5 756,-3458.5 756,-3458.5 756,-3464.5 750,-3470.5 744,-3470.5 744,-3470.5 497,-3470.5 497,-3470.5 491,-3470.5 485,-3464.5 485,-3458.5 485,-3458.5 485,-3424.5 485,-3424.5 485,-3418.5 491,-3412.5 497,-3412.5"/>
<polygon fill="#c0c0c0" stroke="transparent" points="495.5,-3442.5 495.5,-3464.5 746.5,-3464.5 746.5,-3442.5 495.5,-3442.5"/>
<text text-anchor="start" x="583.2063" y="-3448.9" font-family="Courier New" font-size="14.00" fill="#000000">loc_45c5c</text>
<text text-anchor="start" x="498.2203" y="-3424.9" font-family="Courier New" font-size="14.00" fill="#000000">TBZ        W0, 0x0, loc_45dd4</text>
</g>
<!-- 1772&#45;&gt;1773 -->
<g id="edge1" class="edge">
<title>1772-&gt;1773</title>
<path fill="none" stroke="#0000ff" d="M620.5,-3507.265C620.5,-3498.29 620.5,-3489.1227 620.5,-3480.5922"/>
<polygon fill="#0000ff" stroke="#0000ff" points="624.0001,-3480.5583 620.5,-3470.5583 617.0001,-3480.5584 624.0001,-3480.5583"/>
</g>
<!-- 1774 -->
<g id="node16" class="node">
<title>1774</title>
<path fill="none" stroke="#000000" d="M453,-3269.5C453,-3269.5 650,-3269.5 650,-3269.5 656,-3269.5 662,-3275.5 662,-3281.5 662,-3281.5 662,-3363.5 662,-3363.5 662,-3369.5 656,-3375.5 650,-3375.5 650,-3375.5 453,-3375.5 453,-3375.5 447,-3375.5 441,-3369.5 441,-3363.5 441,-3363.5 441,-3281.5 441,-3281.5 441,-3275.5 447,-3269.5 453,-3269.5"/>
<polygon fill="#c0c0c0" stroke="transparent" points="451.5,-3347.5 451.5,-3369.5 652.5,-3369.5 652.5,-3347.5 451.5,-3347.5"/>
<text text-anchor="start" x="514.2063" y="-3353.9" font-family="Courier New" font-size="14.00" fill="#000000">loc_45c60</text>
<text text-anchor="start" x="454.4161" y="-3329.9" font-family="Courier New" font-size="14.00" fill="#000000">ADD        X8, SP, 0x20</text>
<text text-anchor="start" x="454.5" y="-3305.9" font-family="Courier New" font-size="14.00" fill="#000000">MOV        X0, X21</text>
<text text-anchor="start" x="454.5" y="-3281.9" font-family="Courier New" font-size="14.00" fill="#000000">BL         loc_3b618</text>
</g>
<!-- 1773&#45;&gt;1774 -->
<g id="edge2" class="edge">
<title>1773-&gt;1774</title>
<path fill="none" stroke="#ff0000" d="M603.6207,-3412.3893C598.7333,-3403.9603 593.201,-3394.4191 587.6121,-3384.7803"/>
<polygon fill="#ff0000" stroke="#ff0000" points="590.5245,-3382.8254 582.4805,-3375.9301 584.4688,-3386.3367 590.5245,-3382.8254"/>
</g>
<!-- 1648 -->
<g id="node18" class="node">
<title>1648</title>
<path fill="none" stroke="#000000" d="M653,-3150.5C653,-3150.5 808,-3150.5 808,-3150.5 814,-3150.5 820,-3156.5 820,-3162.5 820,-3162.5 820,-3196.5 820,-3196.5 820,-3202.5 814,-3208.5 808,-3208.5 808,-3208.5 653,-3208.5 653,-3208.5 647,-3208.5 641,-3202.5 641,-3196.5 641,-3196.5 641,-3162.5 641,-3162.5 641,-3156.5 647,-3150.5 653,-3150.5"/>
<polygon fill="#c0c0c0" stroke="transparent" points="651.5,-3180.5 651.5,-3202.5 810.5,-3202.5 810.5,-3180.5 651.5,-3180.5"/>
<text text-anchor="start" x="693.2063" y="-3186.9" font-family="Courier New" font-size="14.00" fill="#000000">loc_45dd4</text>
<text text-anchor="start" x="654.4126" y="-3162.9" font-family="Courier New" font-size="14.00" fill="#000000">MOVN       W0, 0x0</text>
</g>
<!-- 1773&#45;&gt;1648 -->
<g id="edge3" class="edge">
<title>1773-&gt;1648</title>
<path fill="none" stroke="#32cd32" d="M646.8678,-3412.4411C655.6595,-3401.6016 664.8879,-3388.8058 671.5,-3376 698.0143,-3324.6491 714.6193,-3259.4577 723.2253,-3218.5967"/>
<polygon fill="#32cd32" stroke="#32cd32" points="726.6631,-3219.2549 725.2421,-3208.7558 719.8056,-3217.8495 726.6631,-3219.2549"/>
</g>
<!-- 1775 -->
<g id="node17" class="node">
<title>1775</title>
<path fill="none" stroke="#000000" d="M414,-3126.5C414,-3126.5 611,-3126.5 611,-3126.5 617,-3126.5 623,-3132.5 623,-3138.5 623,-3138.5 623,-3220.5 623,-3220.5 623,-3226.5 617,-3232.5 611,-3232.5 611,-3232.5 414,-3232.5 414,-3232.5 408,-3232.5 402,-3226.5 402,-3220.5 402,-3220.5 402,-3138.5 402,-3138.5 402,-3132.5 408,-3126.5 414,-3126.5"/>
<polygon fill="#c0c0c0" stroke="transparent" points="412.5,-3204.5 412.5,-3226.5 613.5,-3226.5 613.5,-3204.5 412.5,-3204.5"/>
<text text-anchor="start" x="475.2063" y="-3210.9" font-family="Courier New" font-size="14.00" fill="#000000">loc_45c6c</text>
<text text-anchor="start" x="415.5" y="-3186.9" font-family="Courier New" font-size="14.00" fill="#000000">ADD        X8, SP, 0x8</text>
<text text-anchor="start" x="415.4161" y="-3162.9" font-family="Courier New" font-size="14.00" fill="#000000">ADD        X0, SP, 0x20</text>
<text text-anchor="start" x="415.5" y="-3138.9" font-family="Courier New" font-size="14.00" fill="#000000">BL         loc_3b628</text>
</g>
<!-- 1774&#45;&gt;1775 -->
<g id="edge4" class="edge">
<title>1774-&gt;1775</title>
<path fill="none" stroke="#0000ff" d="M536.9778,-3269.2521C534.6176,-3260.5978 532.1531,-3251.5613 529.7356,-3242.6973"/>
<polygon fill="#0000ff" stroke="#0000ff" points="533.0422,-3241.5191 527.0343,-3232.7924 526.2889,-3243.361 533.0422,-3241.5191"/>
</g>
<!-- 1776 -->
<g id="node19" class="node">
<title>1776</title>
<path fill="none" stroke="#000000" d="M406,-3007.5C406,-3007.5 619,-3007.5 619,-3007.5 625,-3007.5 631,-3013.5 631,-3019.5 631,-3019.5 631,-3077.5 631,-3077.5 631,-3083.5 625,-3089.5 619,-3089.5 619,-3089.5 406,-3089.5 406,-3089.5 400,-3089.5 394,-3083.5 394,-3077.5 394,-3077.5 394,-3019.5 394,-3019.5 394,-3013.5 400,-3007.5 406,-3007.5"/>
<polygon fill="#c0c0c0" stroke="transparent" points="404.5,-3061.5 404.5,-3083.5 621.5,-3083.5 621.5,-3061.5 404.5,-3061.5"/>
<text text-anchor="start" x="475.2063" y="-3067.9" font-family="Courier New" font-size="14.00" fill="#000000">loc_45c78</text>
<text text-anchor="start" x="407.0175" y="-3043.9" font-family="Courier New" font-size="14.00" fill="#000000">LDR        X8, [SP, 0x20]</text>
<text text-anchor="start" x="407.5" y="-3019.9" font-family="Courier New" font-size="14.00" fill="#000000">CBZ        X8, loc_45c94</text>
</g>
<!-- 1775&#45;&gt;1776 -->
<g id="edge5" class="edge">
<title>1775-&gt;1776</title>
<path fill="none" stroke="#0000ff" d="M512.5,-3126.2173C512.5,-3117.4602 512.5,-3108.401 512.5,-3099.6962"/>
<polygon fill="#0000ff" stroke="#0000ff" points="516.0001,-3099.6795 512.5,-3089.6796 509.0001,-3099.6796 516.0001,-3099.6795"/>
</g>
<!-- 1648&#45;&gt;1402 -->
<g id="edge33" class="edge">
<title>1648-&gt;1402</title>
<path fill="none" stroke="#0000ff" d="M730.5,-3150.268C730.5,-3098.5083 730.5,-2987.3438 730.5,-2893.5 730.5,-2893.5 730.5,-2893.5 730.5,-2249.5 730.5,-2161.801 748.5513,-2132.9463 712.5,-2053 708.1106,-2043.2661 702.5349,-2033.8381 696.2426,-2024.8528"/>
<polygon fill="#0000ff" stroke="#0000ff" points="699.0166,-2022.7169 690.2759,-2016.7292 693.3748,-2026.8608 699.0166,-2022.7169"/>
</g>
<!-- 1778 -->
<g id="node20" class="node">
<title>1778</title>
<path fill="none" stroke="#000000" d="M252,-2816.5C252,-2816.5 583,-2816.5 583,-2816.5 589,-2816.5 595,-2822.5 595,-2828.5 595,-2828.5 595,-2958.5 595,-2958.5 595,-2964.5 589,-2970.5 583,-2970.5 583,-2970.5 252,-2970.5 252,-2970.5 246,-2970.5 240,-2964.5 240,-2958.5 240,-2958.5 240,-2828.5 240,-2828.5 240,-2822.5 246,-2816.5 252,-2816.5"/>
<polygon fill="#c0c0c0" stroke="transparent" points="250.5,-2942.5 250.5,-2964.5 585.5,-2964.5 585.5,-2942.5 250.5,-2942.5"/>
<text text-anchor="start" x="380.2063" y="-2948.9" font-family="Courier New" font-size="14.00" fill="#000000">loc_45c80</text>
<text text-anchor="start" x="253.5" y="-2924.9" font-family="Courier New" font-size="14.00" fill="#000000">LDR        X9, [X8]</text>
<text text-anchor="start" x="253.5" y="-2900.9" font-family="Courier New" font-size="14.00" fill="#000000">ADD        X1, SP, 0x20</text>
<text text-anchor="start" x="253.2273" y="-2876.9" font-family="Courier New" font-size="14.00" fill="#000000">LDUR       X9, [X9, 0xFFFFFFFFFFFFFFE8]</text>
<text text-anchor="start" x="253.5" y="-2852.9" font-family="Courier New" font-size="14.00" fill="#000000">ADD        X0, X8, X9</text>
<text text-anchor="start" x="253.5" y="-2828.9" font-family="Courier New" font-size="14.00" fill="#000000">BL         loc_3a878</text>
</g>
<!-- 1776&#45;&gt;1778 -->
<g id="edge7" class="edge">
<title>1776-&gt;1778</title>
<path fill="none" stroke="#ff0000" d="M487.2912,-3007.3698C481.8917,-2998.5602 475.9953,-2988.9397 469.9913,-2979.1438"/>
<polygon fill="#ff0000" stroke="#ff0000" points="472.907,-2977.203 464.6972,-2970.506 466.9388,-2980.861 472.907,-2977.203"/>
</g>
<!-- 1777 -->
<g id="node21" class="node">
<title>1777</title>
<path fill="none" stroke="#000000" d="M359,-2625.5C359,-2625.5 572,-2625.5 572,-2625.5 578,-2625.5 584,-2631.5 584,-2637.5 584,-2637.5 584,-2767.5 584,-2767.5 584,-2773.5 578,-2779.5 572,-2779.5 572,-2779.5 359,-2779.5 359,-2779.5 353,-2779.5 347,-2773.5 347,-2767.5 347,-2767.5 347,-2637.5 347,-2637.5 347,-2631.5 353,-2625.5 359,-2625.5"/>
<polygon fill="#c0c0c0" stroke="transparent" points="357.5,-2751.5 357.5,-2773.5 574.5,-2773.5 574.5,-2751.5 357.5,-2751.5"/>
<text text-anchor="start" x="428.2063" y="-2757.9" font-family="Courier New" font-size="14.00" fill="#000000">loc_45c94</text>
<text text-anchor="start" x="360.5" y="-2733.9" font-family="Courier New" font-size="14.00" fill="#000000">LDR        X8, [X19]</text>
<text text-anchor="start" x="360.0175" y="-2709.9" font-family="Courier New" font-size="14.00" fill="#000000">LDR        X8, [X8, 0xE8]</text>
<text text-anchor="start" x="360.5" y="-2685.9" font-family="Courier New" font-size="14.00" fill="#000000">ADD        X1, SP, 0x8</text>
<text text-anchor="start" x="360.5" y="-2661.9" font-family="Courier New" font-size="14.00" fill="#000000">MOV        X0, X19</text>
<text text-anchor="start" x="360.5" y="-2637.9" font-family="Courier New" font-size="14.00" fill="#000000">BLR        X8</text>
</g>
<!-- 1776&#45;&gt;1777 -->
<g id="edge8" class="edge">
<title>1776-&gt;1777</title>
<path fill="none" stroke="#32cd32" d="M576.9333,-3007.0726C588.1066,-2996.729 598.1584,-2984.6339 604.5,-2971 633.5535,-2908.5374 634.0308,-2878.2383 604.5,-2816 599.6968,-2805.8769 593.4997,-2796.358 586.3953,-2787.4733"/>
<polygon fill="#32cd32" stroke="#32cd32" points="589.0607,-2785.2049 579.9307,-2779.8296 583.7159,-2789.7252 589.0607,-2785.2049"/>
</g>
<!-- 1778&#45;&gt;1777 -->
<g id="edge9" class="edge">
<title>1778-&gt;1777</title>
<path fill="none" stroke="#0000ff" d="M436.8851,-2816.3635C439.1207,-2807.4677 441.4118,-2798.3509 443.6769,-2789.3379"/>
<polygon fill="#0000ff" stroke="#0000ff" points="447.0777,-2790.1654 446.1206,-2779.6139 440.2888,-2788.4592 447.0777,-2790.1654"/>
</g>
<!-- 1777&#45;&gt;1664 -->
<g id="edge12" class="edge">
<title>1777-&gt;1664</title>
<path fill="none" stroke="#0000ff" d="M465.5,-2625.3549C465.5,-2616.6056 465.5,-2607.7628 465.5,-2599.2136"/>
<polygon fill="#0000ff" stroke="#0000ff" points="469.0001,-2598.957 465.5,-2588.9571 462.0001,-2598.9571 469.0001,-2598.957"/>
</g>
<!-- 367 -->
<g id="node22" class="node">
<title>367</title>
<path fill="none" stroke="#000000" d="M690.5,-823.5C690.5,-823.5 1248.5,-823.5 1248.5,-823.5 1254.5,-823.5 1260.5,-829.5 1260.5,-835.5 1260.5,-835.5 1260.5,-893.5 1260.5,-893.5 1260.5,-899.5 1254.5,-905.5 1248.5,-905.5 1248.5,-905.5 690.5,-905.5 690.5,-905.5 684.5,-905.5 678.5,-899.5 678.5,-893.5 678.5,-893.5 678.5,-835.5 678.5,-835.5 678.5,-829.5 684.5,-823.5 690.5,-823.5"/>
<polygon fill="#c0c0c0" stroke="transparent" points="688.5,-877.5 688.5,-899.5 1250.5,-899.5 1250.5,-877.5 688.5,-877.5"/>
<text text-anchor="start" x="692.3462" y="-883.9" font-family="Courier New" font-size="14.00" fill="#000000">_ZThn8_N7android8hardware8BnCamera10onTransactEjRKNS_6ParcelEPS2_j</text>
<text text-anchor="start" x="691.5" y="-859.9" font-family="Courier New" font-size="14.00" fill="#000000">SUB        X0, X0, 0x8</text>
<text text-anchor="start" x="691.5" y="-835.9" font-family="Courier New" font-size="14.00" fill="#000000">B          loc_3b6c8</text>
</g>
<!-- 367&#45;&gt;1414 -->
<g id="edge23" class="edge">
<title>367-&gt;1414</title>
<path fill="none" stroke="#0000ff" d="M969.5,-823.4338C969.5,-804.8108 969.5,-782.1843 969.5,-760.6885"/>
<polygon fill="#0000ff" stroke="#0000ff" points="973.0001,-760.5809 969.5,-750.581 966.0001,-760.581 973.0001,-760.5809"/>
</g>
<!-- 1654&#45;&gt;1402 -->
<g id="edge30" class="edge">
<title>1654-&gt;1402</title>
<path fill="none" stroke="#0000ff" d="M605.5,-2053.3698C605.5,-2045.0051 605.5,-2035.9094 605.5,-2026.6266"/>
<polygon fill="#0000ff" stroke="#0000ff" points="609.0001,-2026.506 605.5,-2016.506 602.0001,-2026.506 609.0001,-2026.506"/>
</g>
<!-- 1403 -->
<g id="node25" class="node">
<title>1403</title>
<path fill="none" stroke="#000000" d="M390,-1707.5C390,-1707.5 561,-1707.5 561,-1707.5 567,-1707.5 573,-1713.5 573,-1719.5 573,-1719.5 573,-1753.5 573,-1753.5 573,-1759.5 567,-1765.5 561,-1765.5 561,-1765.5 390,-1765.5 390,-1765.5 384,-1765.5 378,-1759.5 378,-1753.5 378,-1753.5 378,-1719.5 378,-1719.5 378,-1713.5 384,-1707.5 390,-1707.5"/>
<polygon fill="#c0c0c0" stroke="transparent" points="388.5,-1737.5 388.5,-1759.5 563.5,-1759.5 563.5,-1737.5 388.5,-1737.5"/>
<text text-anchor="start" x="438.2063" y="-1743.9" font-family="Courier New" font-size="14.00" fill="#000000">loc_45e04</text>
<text text-anchor="start" x="391.014" y="-1719.9" font-family="Courier New" font-size="14.00" fill="#000000">BL         loc_3a8b8</text>
</g>
<!-- 1402&#45;&gt;1403 -->
<g id="edge32" class="edge">
<title>1402-&gt;1403</title>
<path fill="none" stroke="#32cd32" d="M556.1672,-1862.4649C536.8477,-1832.2968 515.5646,-1799.0624 499.7126,-1774.3088"/>
<polygon fill="#32cd32" stroke="#32cd32" points="502.4721,-1772.1279 494.1318,-1765.5942 496.5773,-1775.903 502.4721,-1772.1279"/>
</g>
<!-- 1404 -->
<g id="node26" class="node">
<title>1404</title>
<path fill="none" stroke="#000000" d="M603.5,-1647.5C603.5,-1647.5 867.5,-1647.5 867.5,-1647.5 873.5,-1647.5 879.5,-1653.5 879.5,-1659.5 879.5,-1659.5 879.5,-1813.5 879.5,-1813.5 879.5,-1819.5 873.5,-1825.5 867.5,-1825.5 867.5,-1825.5 603.5,-1825.5 603.5,-1825.5 597.5,-1825.5 591.5,-1819.5 591.5,-1813.5 591.5,-1813.5 591.5,-1659.5 591.5,-1659.5 591.5,-1653.5 597.5,-1647.5 603.5,-1647.5"/>
<polygon fill="#c0c0c0" stroke="transparent" points="601.5,-1797.5 601.5,-1819.5 869.5,-1819.5 869.5,-1797.5 601.5,-1797.5"/>
<text text-anchor="start" x="697.7063" y="-1803.9" font-family="Courier New" font-size="14.00" fill="#000000">loc_45dec</text>
<text text-anchor="start" x="604.5" y="-1779.9" font-family="Courier New" font-size="14.00" fill="#000000">LDP        X29, LR, [SP, 0x70]</text>
<text text-anchor="start" x="604.3217" y="-1755.9" font-family="Courier New" font-size="14.00" fill="#000000">LDP        X20, X19, [SP, 0x60]</text>
<text text-anchor="start" x="604.3217" y="-1731.9" font-family="Courier New" font-size="14.00" fill="#000000">LDP        X22, X21, [SP, 0x50]</text>
<text text-anchor="start" x="604.5" y="-1707.9" font-family="Courier New" font-size="14.00" fill="#000000">LDR        X23, [SP, 0x40]</text>
<text text-anchor="start" x="604.5" y="-1683.9" font-family="Courier New" font-size="14.00" fill="#000000">ADD        SP, SP, 0x80</text>
<text text-anchor="start" x="604.5" y="-1659.9" font-family="Courier New" font-size="14.00" fill="#000000">RET        LR</text>
</g>
<!-- 1402&#45;&gt;1404 -->
<g id="edge31" class="edge">
<title>1402-&gt;1404</title>
<path fill="none" stroke="#ff0000" d="M654.8328,-1862.4649C660.7171,-1853.2764 666.7835,-1843.8034 672.8232,-1834.3722"/>
<polygon fill="#ff0000" stroke="#ff0000" points="675.9108,-1836.0408 678.3563,-1825.732 670.016,-1832.2657 675.9108,-1836.0408"/>
</g>
<!-- 1403&#45;&gt;36 -->
<g id="edge6" class="edge">
<title>1403-&gt;36</title>
<path fill="none" stroke="#0000ff" d="M475.5,-1707.4015C475.5,-1685.741 475.5,-1654.2121 475.5,-1620.5831"/>
<polygon fill="#0000ff" stroke="#0000ff" points="479.0001,-1620.5703 475.5,-1610.5703 472.0001,-1620.5704 479.0001,-1620.5703"/>
</g>
<!-- 1406&#45;&gt;1408 -->
<g id="edge13" class="edge">
<title>1406-&gt;1408</title>
<path fill="none" stroke="#ff0000" d="M559.5,-1169.3698C559.5,-1161.0051 559.5,-1151.9094 559.5,-1142.6266"/>
<polygon fill="#ff0000" stroke="#ff0000" points="563.0001,-1142.506 559.5,-1132.506 556.0001,-1142.506 563.0001,-1142.506"/>
</g>
<!-- 1407 -->
<g id="node29" class="node">
<title>1407</title>
<path fill="none" stroke="#000000" d="M806,-1026.5C806,-1026.5 977,-1026.5 977,-1026.5 983,-1026.5 989,-1032.5 989,-1038.5 989,-1038.5 989,-1072.5 989,-1072.5 989,-1078.5 983,-1084.5 977,-1084.5 977,-1084.5 806,-1084.5 806,-1084.5 800,-1084.5 794,-1078.5 794,-1072.5 794,-1072.5 794,-1038.5 794,-1038.5 794,-1032.5 800,-1026.5 806,-1026.5"/>
<polygon fill="#c0c0c0" stroke="transparent" points="804.5,-1056.5 804.5,-1078.5 979.5,-1078.5 979.5,-1056.5 804.5,-1056.5"/>
<text text-anchor="start" x="854.2063" y="-1062.9" font-family="Courier New" font-size="14.00" fill="#000000">loc_45eb4</text>
<text text-anchor="start" x="807.014" y="-1038.9" font-family="Courier New" font-size="14.00" fill="#000000">BL         loc_3aab8</text>
</g>
<!-- 1406&#45;&gt;1407 -->
<g id="edge14" class="edge">
<title>1406-&gt;1407</title>
<path fill="none" stroke="#32cd32" d="M647.5983,-1169.3698C701.4906,-1144.2092 769.5501,-1112.4344 820.0718,-1088.8475"/>
<polygon fill="#32cd32" stroke="#32cd32" points="821.7133,-1091.9439 829.2938,-1084.542 818.752,-1085.6011 821.7133,-1091.9439"/>
</g>
<!-- 1407&#45;&gt;367 -->
<g id="edge17" class="edge">
<title>1407-&gt;367</title>
<path fill="none" stroke="#0000ff" d="M903.3465,-1026.4912C915.3447,-997.111 934.1498,-951.0627 948.6483,-915.5599"/>
<polygon fill="#0000ff" stroke="#0000ff" points="952.0737,-916.4296 952.6142,-905.8486 945.5932,-913.7831 952.0737,-916.4296"/>
</g>
</g>
</svg>